<?xml version="1.0" encoding="UTF-8"?>
<svg version="1.1" xmlns="http://www.w3.org/2000/svg" width="96" height="96">
<path d="M0 0 C10.58334856 8.82743855 16.1793699 19.98754168 17.6796875 33.6171875 C18.21712444 46.92412615 13.65835426 58.27803269 5.21484375 68.28515625 C-3.67886264 77.79935378 -15.18482389 82.86708838 -28.16015625 83.34765625 C-41.1376012 83.13363542 -52.77748315 78.68468475 -62.41015625 69.91015625 C-70.7797941 60.72197191 -75.45371239 49.39807238 -75.91015625 36.97265625 C-74.71950148 22.20853705 -69.88381478 10.13365568 -58.59765625 0.09765625 C-40.70010303 -13.18764236 -17.96075408 -13.15321389 0 0 Z " fill="#C8A480" transform="translate(76.59765625,10.90234375)"/>
<path d="M0 0 C1.20221191 0.00241699 1.20221191 0.00241699 2.42871094 0.00488281 C8.73034901 0.13505031 13.79365257 1.2041314 19.3125 4.375 C20.364375 4.973125 21.41625 5.57125 22.5 6.1875 C31.51249026 13.19721465 37.73211029 21.80742529 39.3125 33.375 C39.94506906 40.32196379 38.92852099 45.92837685 36.3125 52.375 C35.20405081 49.04965243 35.46795644 46.75317425 36.3125 43.375 C35.13171875 43.5915625 33.9509375 43.808125 32.734375 44.03125 C31.17711627 44.3126823 29.61982276 44.59392223 28.0625 44.875 C27.28519531 45.01808594 26.50789063 45.16117188 25.70703125 45.30859375 C24.57587891 45.51162109 24.57587891 45.51162109 23.421875 45.71875 C22.73061523 45.84443359 22.03935547 45.97011719 21.32714844 46.09960938 C19.3125 46.375 19.3125 46.375 15.3125 46.375 C15.61285156 47.27863281 15.91320313 48.18226562 16.22265625 49.11328125 C16.79306641 50.88251953 16.79306641 50.88251953 17.375 52.6875 C17.75785156 53.85925781 18.14070313 55.03101563 18.53515625 56.23828125 C19.3125 59.375 19.3125 59.375 18.3125 62.375 C16.8125 61 16.8125 61 15.3125 59.375 C15.3125 58.715 15.3125 58.055 15.3125 57.375 C14.36158497 55.96560807 13.35330695 54.59437565 12.3125 53.25 C11.4771875 52.16332031 11.4771875 52.16332031 10.625 51.0546875 C10.191875 50.50039063 9.75875 49.94609375 9.3125 49.375 C9.044375 49.931875 8.77625 50.48875 8.5 51.0625 C7.70251615 52.61549487 6.85045514 54.14154433 5.94921875 55.63671875 C3.88447864 59.09109301 2.0069643 62.63116601 0.125 66.1875 C-0.42704102 67.22680664 -0.42704102 67.22680664 -0.99023438 68.28710938 C-1.89051392 69.98244099 -2.78917245 71.67863325 -3.6875 73.375 C-5.81593845 70.18234232 -6.21994346 68.30124957 -6.8125 64.5625 C-6.98007812 63.54542969 -7.14765625 62.52835938 -7.3203125 61.48046875 C-7.68305755 58.41257182 -7.75207941 55.4609734 -7.6875 52.375 C-8.60273437 52.66375 -9.51796875 52.9525 -10.4609375 53.25 C-11.64945313 53.62125 -12.83796875 53.9925 -14.0625 54.375 C-15.24585937 54.74625 -16.42921875 55.1175 -17.6484375 55.5 C-20.6875 56.375 -20.6875 56.375 -22.6875 56.375 C-22.6875 55.715 -22.6875 55.055 -22.6875 54.375 C-21.635625 53.818125 -20.58375 53.26125 -19.5 52.6875 C-15.94796527 50.6732364 -13.43836314 48.3759416 -10.6875 45.375 C-12.0075 44.715 -13.3275 44.055 -14.6875 43.375 C-15.0175 44.365 -15.3475 45.355 -15.6875 46.375 C-16.0175 45.715 -16.3475 45.055 -16.6875 44.375 C-16.3575 43.715 -16.0275 43.055 -15.6875 42.375 C-16.53570313 42.10945313 -17.38390625 41.84390625 -18.2578125 41.5703125 C-21.81490946 40.33059534 -25.15343399 38.85017384 -28.5625 37.25 C-29.71492188 36.71117187 -30.86734375 36.17234375 -32.0546875 35.6171875 C-32.92351563 35.20726562 -33.79234375 34.79734375 -34.6875 34.375 C-35.0175 38.005 -35.3475 41.635 -35.6875 45.375 C-36.0175 45.375 -36.3475 45.375 -36.6875 45.375 C-36.74130578 42.58307795 -36.78107669 39.7921859 -36.8125 37 C-36.83763672 35.80890625 -36.83763672 35.80890625 -36.86328125 34.59375 C-36.88085473 32.52007985 -36.79085168 30.44616759 -36.6875 28.375 C-36.0275 27.715 -35.3675 27.055 -34.6875 26.375 C-34.6875 28.355 -34.6875 30.335 -34.6875 32.375 C-33.59050781 32.1584375 -32.49351563 31.941875 -31.36328125 31.71875 C-29.90890116 31.43725708 -28.45447143 31.15602059 -27 30.875 C-26.27876953 30.73191406 -25.55753906 30.58882812 -24.81445312 30.44140625 C-21.04908641 29.71928113 -17.54276187 29.1925024 -13.6875 29.375 C-13.3575 28.055 -13.0275 26.735 -12.6875 25.375 C-12.6875 26.365 -12.6875 27.355 -12.6875 28.375 C-11.0375 28.375 -9.3875 28.375 -7.6875 28.375 C-8.80428083 26.7028148 -9.93116352 25.03737197 -11.0625 23.375 C-12.00222656 21.9828125 -12.00222656 21.9828125 -12.9609375 20.5625 C-13.53070313 19.840625 -14.10046875 19.11875 -14.6875 18.375 C-15.3475 18.375 -16.0075 18.375 -16.6875 18.375 C-16.3575 17.055 -16.0275 15.735 -15.6875 14.375 C-14.98882813 14.808125 -14.29015625 15.24125 -13.5703125 15.6875 C-12.66023438 16.244375 -11.75015625 16.80125 -10.8125 17.375 C-9.90757813 17.931875 -9.00265625 18.48875 -8.0703125 19.0625 C-5.84892533 20.53582329 -5.84892533 20.53582329 -3.6875 20.375 C-3.0275 19.715 -2.3675 19.055 -1.6875 18.375 C-2.30262612 22.55785762 -3.34291448 25.8345817 -5.6875 29.375 C-8.48167849 30.34397356 -10.62825495 30.87508496 -13.5 31.25 C-14.54897461 31.42402344 -14.54897461 31.42402344 -15.61914062 31.6015625 C-19.66982687 32.23815304 -23.57822725 32.4911176 -27.6875 32.375 C-27.6875 33.035 -27.6875 33.695 -27.6875 34.375 C-24.66711911 34.71294471 -21.64630244 35.04548433 -18.625 35.375 C-17.77744141 35.47039063 -16.92988281 35.56578125 -16.05664062 35.6640625 C-11.23277411 36.18556158 -6.53913736 36.48032727 -1.6875 36.375 C-1.6875 35.385 -1.6875 34.395 -1.6875 33.375 C-1.0275 34.035 -0.3675 34.695 0.3125 35.375 C0.81860903 32.14676021 1.31629907 28.91727635 1.8125 25.6875 C1.95558594 24.77548828 2.09867188 23.86347656 2.24609375 22.92382812 C2.38144531 22.03759766 2.51679687 21.15136719 2.65625 20.23828125 C2.78193359 19.42657471 2.90761719 18.61486816 3.03710938 17.77856445 C3.32227723 15.28966595 3.35924739 12.87793311 3.3125 10.375 C2.3225 11.695 1.3325 13.015 0.3125 14.375 C0.88884139 9.62018354 2.86318521 6.40451788 5.3125 2.375 C7.82564157 4.88814157 7.83326885 6.33986938 8.3828125 9.8203125 C8.55683594 10.89667969 8.73085938 11.97304688 8.91015625 13.08203125 C9.08417969 14.20996094 9.25820313 15.33789062 9.4375 16.5 C9.61925781 17.63566406 9.80101562 18.77132813 9.98828125 19.94140625 C10.43695715 22.75153425 10.87803028 25.56264649 11.3125 28.375 C16.12685727 26.03540954 20.69927502 23.38969442 24.3125 19.375 C24.3125 23.05398367 23.20529443 24.79428665 21.4375 28 C20.90382812 28.98226562 20.37015625 29.96453125 19.8203125 30.9765625 C18.3125 33.375 18.3125 33.375 16.3125 34.375 C15.425625 33.9625 14.53875 33.55 13.625 33.125 C10.46420317 32.04120635 10.46420317 32.04120635 8.36328125 33.3515625 C6.60782425 34.62631627 4.93944382 35.94059391 3.3125 37.375 C17.48952136 40.8701581 17.48952136 40.8701581 31.3125 39.375 C33.9375 40.3125 33.9375 40.3125 36.3125 41.375 C36.95501892 30.19041147 34.75871816 21.85976964 27.3125 13.375 C24.83966193 10.61955186 23.83425847 9.54891949 20.3125 8.375 C19.9825 9.365 19.6525 10.355 19.3125 11.375 C18.3125 9.375 18.3125 9.375 18.3125 6.375 C9.71090919 1.74337418 1.78854492 1.95175234 -7.6875 2.375 C-7.36007813 3.46941406 -7.03265625 4.56382813 -6.6953125 5.69140625 C-5.83174014 8.8477967 -5.49206722 11.15035906 -5.6875 14.375 C-7.65051592 10.86961443 -8.64652388 7.24148272 -9.6875 3.375 C-11.15041304 3.9679915 -12.60771513 4.57483823 -14.0625 5.1875 C-14.87460937 5.52394531 -15.68671875 5.86039063 -16.5234375 6.20703125 C-18.98897458 7.31939082 -18.98897458 7.31939082 -20.6875 10.375 C-21.285625 10.643125 -21.88375 10.91125 -22.5 11.1875 C-25.78241282 12.96938124 -27.44919335 15.39059114 -29.6875 18.375 C-29.6875 19.035 -29.6875 19.695 -29.6875 20.375 C-30.6775 20.705 -31.6675 21.035 -32.6875 21.375 C-30.31252807 12.93065535 -23.39243539 7.76216752 -16.1171875 3.6015625 C-10.5144604 0.77317615 -6.22755974 -0.01291489 0 0 Z " fill="#613938" transform="translate(46.6875,9.625)"/>
<path d="M0 0 C6.88108028 2.62066674 13.46532335 5.60752957 20 9 C20 9.99 20 10.98 20 12 C20.33 11.34 20.66 10.68 21 10 C22.65 10.66 24.3 11.32 26 12 C22.83710367 15.25326479 19.70534633 18.36725392 16 21 C15.01 21 14.02 21 13 21 C13 21.66 13 22.32 13 23 C13.83144531 22.71125 14.66289062 22.4225 15.51953125 22.125 C16.60621094 21.75375 17.69289063 21.3825 18.8125 21 C19.89144531 20.62875 20.97039063 20.2575 22.08203125 19.875 C25 19 25 19 28 19 C28.20496094 20.27617188 28.40992187 21.55234375 28.62109375 22.8671875 C28.89305815 24.53648621 29.16520291 26.20575553 29.4375 27.875 C29.57220703 28.71675781 29.70691406 29.55851562 29.84570312 30.42578125 C30.04389648 31.63427734 30.04389648 31.63427734 30.24609375 32.8671875 C30.36654053 33.61081543 30.4869873 34.35444336 30.61108398 35.12060547 C30.93247105 37.07884647 30.93247105 37.07884647 32 39 C32.55429687 37.81921875 33.10859375 36.6384375 33.6796875 35.421875 C34.41143263 33.86457126 35.14320489 32.30728026 35.875 30.75 C36.23980469 29.97269531 36.60460938 29.19539063 36.98046875 28.39453125 C37.33496094 27.64042969 37.68945312 26.88632813 38.0546875 26.109375 C38.54171143 25.07248535 38.54171143 25.07248535 39.03857422 24.01464844 C39.35584473 23.34981445 39.67311523 22.68498047 40 22 C40.30824707 21.31711914 40.61649414 20.63423828 40.93408203 19.93066406 C42 18 42 18 45 15 C47.64 18.3 50.28 21.6 53 25 C52.67 25.66 52.34 26.32 52 27 C52.66 27.33 53.32 27.66 54 28 C53.7834375 27.16855469 53.566875 26.33710937 53.34375 25.48046875 C53.0653125 24.39378906 52.786875 23.30710937 52.5 22.1875 C52.2215625 21.10855469 51.943125 20.02960937 51.65625 18.91796875 C51 16 51 16 51 13 C53.3736397 12.49265716 55.74857425 11.99397614 58.125 11.5 C59.12273437 11.28537109 59.12273437 11.28537109 60.140625 11.06640625 C64.16056422 10.2387717 67.89904899 9.84669342 72 10 C71.67835567 20.13179633 67.08376011 26.6182613 59.8515625 33.5 C56.815929 35.95924739 53.61333964 37.55611529 50 39 C48.96875 39.4125 47.9375 39.825 46.875 40.25 C36.96362439 42.16833076 26.95117038 42.02663321 18 37 C11.31494446 32.03888428 4.16532956 25.93024046 2.1875 17.5625 C2.125625 16.716875 2.06375 15.87125 2 15 C3.65 14.34 5.3 13.68 7 13 C5.02 13.33 3.04 13.66 1 14 C-0.04976964 10.85069107 -0.10131595 8.61185544 -0.0625 5.3125 C-0.05347656 4.31863281 -0.04445313 3.32476562 -0.03515625 2.30078125 C-0.02355469 1.54152344 -0.01195312 0.78226563 0 0 Z " fill="#C9A580" transform="translate(11,43)"/>
<path d="M0 0 C10.58334856 8.82743855 16.1793699 19.98754168 17.6796875 33.6171875 C18.21712444 46.92412615 13.65835426 58.27803269 5.21484375 68.28515625 C-3.67886264 77.79935378 -15.18482389 82.86708838 -28.16015625 83.34765625 C-41.1376012 83.13363542 -52.77748315 78.68468475 -62.41015625 69.91015625 C-70.7797941 60.72197191 -75.45371239 49.39807238 -75.91015625 36.97265625 C-74.71950148 22.20853705 -69.88381478 10.13365568 -58.59765625 0.09765625 C-40.70010303 -13.18764236 -17.96075408 -13.15321389 0 0 Z M-63.09765625 12.0546875 C-70.36689641 21.95524115 -71.92652241 33.11879924 -70.59765625 45.09765625 C-67.77878553 56.96459862 -61.46208719 66.00130272 -51.2421875 72.58984375 C-40.60348861 78.65563071 -29.29772449 79.95673446 -17.34375 77.40234375 C-11.26331936 75.38962818 -6.3821325 72.31327757 -1.59765625 68.09765625 C-0.98019531 67.57300781 -0.36273438 67.04835938 0.2734375 66.5078125 C8.0021168 59.44396583 11.89458241 49.98758703 12.65625 39.65234375 C13.0333305 27.6100954 10.65464252 18.06515425 2.40234375 9.09765625 C-3.04150637 3.4997349 -8.28074316 -0.20523345 -15.59765625 -2.90234375 C-16.34273437 -3.258125 -17.0878125 -3.61390625 -17.85546875 -3.98046875 C-35.25991919 -9.83153756 -52.05618912 -1.15929052 -63.09765625 12.0546875 Z " fill="#5B3232" transform="translate(76.59765625,10.90234375)"/>
<path d="M0 0 C11.11226193 6.37395297 19.250315 14.96583984 23.15234375 27.3046875 C25.26777177 38.19522436 23.79464109 50.19116486 18.21875 59.81640625 C16.7758789 61.83178384 15.24539736 63.64757283 13.57421875 65.4765625 C12.82205078 66.38148437 12.82205078 66.38148437 12.0546875 67.3046875 C5.67523184 74.44471086 -3.60886849 79.10423125 -13.1484375 79.71484375 C-27.31364149 80.08115704 -37.61384121 77.21235299 -48.42578125 67.4765625 C-57.26310511 57.58990891 -60.43503332 46.66249072 -59.875 33.640625 C-58.9601697 22.41153147 -52.61410228 13.19026279 -44.55078125 5.7265625 C-32.07787611 -4.72306604 -14.67931361 -7.16943284 0 0 Z M-48.42578125 14.4765625 C-51.33931524 18.36127448 -51.9542445 21.66688762 -52.42578125 26.4765625 C-53.08578125 26.4765625 -53.74578125 26.4765625 -54.42578125 26.4765625 C-56.0686381 29.76227621 -55.65208651 33.36903783 -55.67578125 36.9765625 C-55.70671875 38.15412109 -55.70671875 38.15412109 -55.73828125 39.35546875 C-55.79060208 41.89756163 -55.79060208 41.89756163 -55.42578125 45.4765625 C-52.74935636 47.66146257 -52.74935636 47.66146257 -50.42578125 47.4765625 C-51.41578125 47.9715625 -51.41578125 47.9715625 -52.42578125 48.4765625 C-52.03034584 56.38527065 -46.66882096 61.48126562 -41.23828125 66.7265625 C-33.35878839 73.39786645 -25.11610066 75.21559861 -14.9140625 74.84765625 C-3.01653914 73.58196228 4.70024716 68.50411316 12.3046875 59.40625 C14.79246665 56.26869657 14.79246665 56.26869657 15.57421875 52.4765625 C16.56421875 52.1465625 17.55421875 51.8165625 18.57421875 51.4765625 C22.28261519 40.74173069 20.86611278 30.87307598 16.57421875 20.4765625 C11.75964326 11.87300157 3.73166224 5.05489126 -5.42578125 1.4765625 C-21.37719535 -2.9772151 -38.04460485 1.17065839 -48.42578125 14.4765625 Z " fill="#BB9676" transform="translate(65.42578125,9.5234375)"/>
<path d="M0 0 C6.88108028 2.62066674 13.46532335 5.60752957 20 9 C20 9.99 20 10.98 20 12 C20.33 11.34 20.66 10.68 21 10 C22.65 10.66 24.3 11.32 26 12 C22.83710367 15.25326479 19.70534633 18.36725392 16 21 C15.01 21 14.02 21 13 21 C13 21.66 13 22.32 13 23 C13.83144531 22.71125 14.66289062 22.4225 15.51953125 22.125 C16.60621094 21.75375 17.69289063 21.3825 18.8125 21 C19.89144531 20.62875 20.97039063 20.2575 22.08203125 19.875 C25 19 25 19 28 19 C29.485 29.395 29.485 29.395 31 40 C19.8934444 38.4133492 14.09654216 34.64751969 6.6875 26.4375 C4.12317201 22.73347068 2 19.57633359 2 15 C3.65 14.34 5.3 13.68 7 13 C5.02 13.33 3.04 13.66 1 14 C-0.04976964 10.85069107 -0.10131595 8.61185544 -0.0625 5.3125 C-0.05347656 4.31863281 -0.04445313 3.32476562 -0.03515625 2.30078125 C-0.02355469 1.54152344 -0.01195312 0.78226563 0 0 Z " fill="#DCC0A3" transform="translate(11,43)"/>
<path d="M0 0 C0.77085938 0.433125 1.54171875 0.86625 2.3359375 1.3125 C3.84027344 2.1478125 3.84027344 2.1478125 5.375 3 C6.37273438 3.556875 7.37046875 4.11375 8.3984375 4.6875 C10.81195509 6.15014268 10.81195509 6.15014268 13 6 C13.66 5.34 14.32 4.68 15 4 C14.38487388 8.18285762 13.34458552 11.4595817 11 15 C8.20582151 15.96897356 6.05924505 16.50008496 3.1875 16.875 C2.13852539 17.04902344 2.13852539 17.04902344 1.06835938 17.2265625 C-2.98232687 17.86315304 -6.89072725 18.1161176 -11 18 C-11 18.66 -11 19.32 -11 20 C-9.74445312 20.12117188 -8.48890625 20.24234375 -7.1953125 20.3671875 C-5.50518253 20.5362005 -3.8150798 20.70548601 -2.125 20.875 C-0.89136719 20.99294922 -0.89136719 20.99294922 0.3671875 21.11328125 C6.33352315 21.71923721 12.1406378 22.72690477 18 24 C17.91435791 24.60360352 17.82871582 25.20720703 17.74047852 25.82910156 C17.34432814 28.63559027 16.95263923 31.44266926 16.5625 34.25 C16.42271729 35.25313232 16.28293457 36.25626465 16.13891602 37.28979492 C15.28432724 43.54615385 14.60561077 49.74141974 14.30859375 56.05078125 C14.20675781 56.69402344 14.10492188 57.33726563 14 58 C13.01 58.495 13.01 58.495 12 59 C11.49265716 56.6263603 10.99397614 54.25142575 10.5 51.875 C10.35691406 51.20984375 10.21382812 50.5446875 10.06640625 49.859375 C9.2387717 45.83943578 8.84669342 42.10095101 9 38 C8.08476563 38.28875 7.16953125 38.5775 6.2265625 38.875 C5.03804687 39.24625 3.84953125 39.6175 2.625 40 C1.44164063 40.37125 0.25828125 40.7425 -0.9609375 41.125 C-4 42 -4 42 -6 42 C-6 41.34 -6 40.68 -6 40 C-4.948125 39.443125 -3.89625 38.88625 -2.8125 38.3125 C0.73953473 36.2982364 3.24913686 34.0009416 6 31 C4.68 30.34 3.36 29.68 2 29 C1.67 29.99 1.34 30.98 1 32 C0.67 31.34 0.34 30.68 0 30 C0.33 29.34 0.66 28.68 1 28 C0.15179687 27.73445313 -0.69640625 27.46890625 -1.5703125 27.1953125 C-5.12740946 25.95559534 -8.46593399 24.47517384 -11.875 22.875 C-13.02742188 22.33617188 -14.17984375 21.79734375 -15.3671875 21.2421875 C-16.23601563 20.83226563 -17.10484375 20.42234375 -18 20 C-18.33 23.63 -18.66 27.26 -19 31 C-19.33 31 -19.66 31 -20 31 C-20.05380578 28.20807795 -20.09357669 25.4171859 -20.125 22.625 C-20.14175781 21.8309375 -20.15851562 21.036875 -20.17578125 20.21875 C-20.19335473 18.14507985 -20.10335168 16.07116759 -20 14 C-19.34 13.34 -18.68 12.68 -18 12 C-18 13.98 -18 15.96 -18 18 C-16.90300781 17.7834375 -15.80601563 17.566875 -14.67578125 17.34375 C-13.22140116 17.06225708 -11.76697143 16.78102059 -10.3125 16.5 C-9.59126953 16.35691406 -8.87003906 16.21382812 -8.12695312 16.06640625 C-4.36158641 15.34428113 -0.85526187 14.8175024 3 15 C3.33 13.68 3.66 12.36 4 11 C4 11.99 4 12.98 4 14 C5.65 14 7.3 14 9 14 C7.88321917 12.3278148 6.75633648 10.66237197 5.625 9 C4.99851562 8.071875 4.37203125 7.14375 3.7265625 6.1875 C3.15679687 5.465625 2.58703125 4.74375 2 4 C1.34 4 0.68 4 0 4 C0 2.68 0 1.36 0 0 Z " fill="#603737" transform="translate(30,24)"/>
<path d="M0 0 C3.73489383 1.24496461 4.11297668 2.82230113 5.89453125 6.16015625 C7.51881726 8.86347324 9.72305836 10.83982459 12 13 C15 16.62068966 15 16.62068966 15 19 C13.948125 18.938125 13.948125 18.938125 12.875 18.875 C9.99427664 18.86836279 9.99427664 18.86836279 7.375 19.875 C1.10740923 21.96419692 -5.38489555 23.167471 -12 23 C-12.59387122 14.68580291 -8.03717495 9.15217461 -3 3 C-2.01493148 1.98528821 -1.0195285 0.98008246 0 0 Z " fill="#C9A581" transform="translate(24,19)"/>
<path d="M0 0 C0.33 0 0.66 0 1 0 C0.45462284 9.44363607 -0.53708385 18.65438032 -2 28 C-2.99 27.67 -3.98 27.34 -5 27 C-4.67 27.66 -4.34 28.32 -4 29 C-10.17739955 29.17159443 -15.91629688 28.53731344 -22 27.5 C-23.30517578 27.28537109 -23.30517578 27.28537109 -24.63671875 27.06640625 C-26.75875695 26.71661973 -28.87952028 26.3591135 -31 26 C-31 25.34 -31 24.68 -31 24 C-28.27172635 23.49465273 -25.54255306 22.99556155 -22.8125 22.5 C-22.04357422 22.35691406 -21.27464844 22.21382812 -20.48242188 22.06640625 C-16.60578227 21.36761285 -12.958529 20.80960983 -9 21 C-8.74476562 20.17242187 -8.48953125 19.34484375 -8.2265625 18.4921875 C-6.84742497 14.56559849 -5.16394698 10.87742537 -3.375 7.125 C-3.05015625 6.43664062 -2.7253125 5.74828125 -2.390625 5.0390625 C-1.59676528 3.35794781 -0.79880442 1.67877079 0 0 Z " fill="#DCC3AB" transform="translate(50,18)"/>
<path d="M0 0 C1.20221191 0.00241699 1.20221191 0.00241699 2.42871094 0.00488281 C8.73034901 0.13505031 13.79365257 1.2041314 19.3125 4.375 C20.364375 4.973125 21.41625 5.57125 22.5 6.1875 C31.51249026 13.19721465 37.73211029 21.80742529 39.3125 33.375 C39.94506906 40.32196379 38.92852099 45.92837685 36.3125 52.375 C35.26547814 48.6485915 35.23807943 45.24486958 35.3125 41.375 C35.6425 41.375 35.9725 41.375 36.3125 41.375 C36.95501892 30.19041147 34.75871816 21.85976964 27.3125 13.375 C24.83966193 10.61955186 23.83425847 9.54891949 20.3125 8.375 C19.9825 9.365 19.6525 10.355 19.3125 11.375 C18.3125 9.375 18.3125 9.375 18.3125 6.375 C9.71090919 1.74337418 1.78854492 1.95175234 -7.6875 2.375 C-7.36007813 3.46941406 -7.03265625 4.56382813 -6.6953125 5.69140625 C-5.83174014 8.8477967 -5.49206722 11.15035906 -5.6875 14.375 C-7.65051592 10.86961443 -8.64652388 7.24148272 -9.6875 3.375 C-11.15041304 3.9679915 -12.60771513 4.57483823 -14.0625 5.1875 C-14.87460937 5.52394531 -15.68671875 5.86039063 -16.5234375 6.20703125 C-18.98897458 7.31939082 -18.98897458 7.31939082 -20.6875 10.375 C-21.285625 10.643125 -21.88375 10.91125 -22.5 11.1875 C-25.78241282 12.96938124 -27.44919335 15.39059114 -29.6875 18.375 C-29.6875 19.035 -29.6875 19.695 -29.6875 20.375 C-30.6775 20.705 -31.6675 21.035 -32.6875 21.375 C-30.31252807 12.93065535 -23.39243539 7.76216752 -16.1171875 3.6015625 C-10.5144604 0.77317615 -6.22755974 -0.01291489 0 0 Z " fill="#764E45" transform="translate(46.6875,9.625)"/>
<path d="M0 0 C6.88108028 2.62066674 13.46532335 5.60752957 20 9 C20 9.66 20 10.32 20 11 C13.73 11.99 7.46 12.98 1 14 C-0.04976964 10.85069107 -0.10131595 8.61185544 -0.0625 5.3125 C-0.05347656 4.31863281 -0.04445313 3.32476562 -0.03515625 2.30078125 C-0.02355469 1.54152344 -0.01195312 0.78226563 0 0 Z " fill="#D6B797" transform="translate(11,43)"/>
<path d="M0 0 C0.77085938 0.433125 1.54171875 0.86625 2.3359375 1.3125 C3.84027344 2.1478125 3.84027344 2.1478125 5.375 3 C6.37273438 3.556875 7.37046875 4.11375 8.3984375 4.6875 C10.81195509 6.15014268 10.81195509 6.15014268 13 6 C13.66 5.34 14.32 4.68 15 4 C14.38487388 8.18285762 13.34458552 11.4595817 11 15 C8.20582151 15.96897356 6.05924505 16.50008496 3.1875 16.875 C2.13852539 17.04902344 2.13852539 17.04902344 1.06835938 17.2265625 C-2.98232687 17.86315304 -6.89072725 18.1161176 -11 18 C-11 18.66 -11 19.32 -11 20 C-13.31 20 -15.62 20 -18 20 C-18.33 23.63 -18.66 27.26 -19 31 C-19.33 31 -19.66 31 -20 31 C-20.05380578 28.20807795 -20.09357669 25.4171859 -20.125 22.625 C-20.14175781 21.8309375 -20.15851562 21.036875 -20.17578125 20.21875 C-20.19335473 18.14507985 -20.10335168 16.07116759 -20 14 C-19.34 13.34 -18.68 12.68 -18 12 C-18 13.98 -18 15.96 -18 18 C-16.90300781 17.7834375 -15.80601563 17.566875 -14.67578125 17.34375 C-13.22140116 17.06225708 -11.76697143 16.78102059 -10.3125 16.5 C-9.59126953 16.35691406 -8.87003906 16.21382812 -8.12695312 16.06640625 C-4.36158641 15.34428113 -0.85526187 14.8175024 3 15 C3.33 13.68 3.66 12.36 4 11 C4 11.99 4 12.98 4 14 C5.65 14 7.3 14 9 14 C7.88321917 12.3278148 6.75633648 10.66237197 5.625 9 C4.99851562 8.071875 4.37203125 7.14375 3.7265625 6.1875 C3.15679687 5.465625 2.58703125 4.74375 2 4 C1.34 4 0.68 4 0 4 C0 2.68 0 1.36 0 0 Z " fill="#653D3B" transform="translate(30,24)"/>
<path d="M0 0 C2.63671875 0.7578125 2.63671875 0.7578125 5.6875 2.125 C6.74839844 2.59550781 7.80929688 3.06601562 8.90234375 3.55078125 C12.64130197 5.30002904 16.33642915 7.09776129 20 9 C20 9.33 20 9.66 20 10 C10.53616378 9.54362211 1.32190498 8.81847768 -8 7 C-5.42215154 4.35247996 -3.08351902 2.05567935 0 0 Z " fill="#DEC6AD" transform="translate(57,41)"/>
<path d="M0 0 C-0.57121986 9.75583392 -1.60523707 19.33144919 -3 29 C-3.66 28.67 -4.32 28.34 -5 28 C-5.50244141 26.20581055 -5.50244141 26.20581055 -5.8515625 23.88671875 C-5.98046875 23.05076172 -6.109375 22.21480469 -6.2421875 21.35351562 C-6.36851563 20.47373047 -6.49484375 19.59394531 -6.625 18.6875 C-6.7590625 17.81931641 -6.893125 16.95113281 -7.03125 16.05664062 C-7.59723317 12.29400764 -8 8.82033376 -8 5 C-6.50390625 3.515625 -6.50390625 3.515625 -4.5625 2.25 C-3.92441406 1.82203125 -3.28632812 1.3940625 -2.62890625 0.953125 C-1 0 -1 0 0 0 Z " fill="#E1C9B0" transform="translate(47,49)"/>
<path d="M0 0 C0.33 0 0.66 0 1 0 C0.45462284 9.44363607 -0.53708385 18.65438032 -2 28 C-4 26 -6 24 -8 22 C-7.60594987 16.37582993 -5.92279925 12.07739095 -3.4375 7.0625 C-3.10814453 6.37865234 -2.77878906 5.69480469 -2.43945312 4.99023438 C-1.63482961 3.32268129 -0.8186103 1.66073161 0 0 Z " fill="#E2CAB0" transform="translate(50,18)"/>
<path d="M0 0 C1.69458304 6.99148727 3.23346459 13.84566949 4 21 C4.31323028 22.67056149 4.63678515 24.33958925 5 26 C4.34 26.33 3.68 26.66 3 27 C2.49265716 24.6263603 1.99397614 22.25142575 1.5 19.875 C1.35691406 19.20984375 1.21382812 18.5446875 1.06640625 17.859375 C0.2387717 13.83943578 -0.15330658 10.10095101 0 6 C-0.91523437 6.28875 -1.83046875 6.5775 -2.7734375 6.875 C-4.55621094 7.431875 -4.55621094 7.431875 -6.375 8 C-7.55835938 8.37125 -8.74171875 8.7425 -9.9609375 9.125 C-13 10 -13 10 -15 10 C-15 9.34 -15 8.68 -15 8 C-13.948125 7.4225 -12.89625 6.845 -11.8125 6.25 C-9.38372635 4.87614824 -7.43223053 3.53546135 -5.25 1.75 C-3 0 -3 0 0 0 Z " fill="#603838" transform="translate(39,56)"/>
<path d="M0 0 C0.33 0.99 0.66 1.98 1 3 C1.66 3 2.32 3 3 3 C3 3.66 3 4.32 3 5 C-8.52164009 7.29612756 -8.52164009 7.29612756 -14 7 C-14 7.66 -14 8.32 -14 9 C-16.31 9 -18.62 9 -21 9 C-21.33 12.63 -21.66 16.26 -22 20 C-22.33 20 -22.66 20 -23 20 C-23.05380578 17.20807795 -23.09357669 14.4171859 -23.125 11.625 C-23.14175781 10.8309375 -23.15851562 10.036875 -23.17578125 9.21875 C-23.19335473 7.14507985 -23.10335168 5.07116759 -23 3 C-22.34 2.34 -21.68 1.68 -21 1 C-21 2.98 -21 4.96 -21 7 C-19.90300781 6.7834375 -18.80601563 6.566875 -17.67578125 6.34375 C-16.22140116 6.06225708 -14.76697143 5.78102059 -13.3125 5.5 C-12.59126953 5.35691406 -11.87003906 5.21382812 -11.12695312 5.06640625 C-7.36158641 4.34428113 -3.85526187 3.8175024 0 4 C0 2.68 0 1.36 0 0 Z " fill="#815B52" transform="translate(33,35)"/>
<path d="M0 0 C0.33 0 0.66 0 1 0 C1.08564209 0.54938232 1.17128418 1.09876465 1.25952148 1.66479492 C1.65108339 4.17253608 2.0442772 6.68001877 2.4375 9.1875 C2.57220703 10.05181641 2.70691406 10.91613281 2.84570312 11.80664062 C3.48704305 15.88931675 4.13776221 19.95669077 5 24 C4.34 24.33 3.68 24.66 3 25 C1.11918875 16.60352122 -0.55048791 8.66508753 0 0 Z " fill="#815C54" transform="translate(39,58)"/>
<path d="M0 0 C3.63559661 3.43361902 6.36113346 6.7973607 9 11 C4.89041233 9.54955729 1.56741255 7.48889248 -2 5 C-1.34 3.35 -0.68 1.7 0 0 Z " fill="#D7BEA6" transform="translate(55,58)"/>
<path d="M0 0 C0.33 0 0.66 0 1 0 C1.39325819 6.97669157 0.63096039 12.51656189 -2 19 C-3.04702186 15.2735915 -3.07442057 11.86986958 -3 8 C-2.34 8 -1.68 8 -1 8 C-0.67 5.36 -0.34 2.72 0 0 Z " fill="#886050" transform="translate(85,43)"/>
<path d="M0 0 C-1.09283577 1.03295436 -2.19970579 2.05107835 -3.3125 3.0625 C-3.92738281 3.63097656 -4.54226562 4.19945312 -5.17578125 4.78515625 C-5.77777344 5.18605469 -6.37976562 5.58695313 -7 6 C-7.99 5.67 -8.98 5.34 -10 5 C-10 4.01 -10 3.02 -10 2 C-8.71211992 1.46987262 -7.41953322 0.9511671 -6.125 0.4375 C-5.40570313 0.14746094 -4.68640625 -0.14257812 -3.9453125 -0.44140625 C-2 -1 -2 -1 0 0 Z " fill="#DDC5AC" transform="translate(67,33)"/>
<path d="M0 0 C2 2 2 2 2.125 4.625 C2.08375 5.40875 2.0425 6.1925 2 7 C1.401875 7.0825 0.80375 7.165 0.1875 7.25 C-2.5966296 8.20455872 -3.43311142 9.57132271 -5 12 C-4.42365861 7.24518354 -2.44931479 4.02951788 0 0 Z " fill="#7E584F" transform="translate(52,12)"/>
<path d="M0 0 C-0.99 0.495 -0.99 0.495 -2 1 C-1.67 2.051875 -1.34 3.10375 -1 4.1875 C-0.16033218 7.38873357 0.19750904 9.7411008 0 13 C-1.96301592 9.49461443 -2.95902388 5.86648272 -4 2 C-5.32 2.33 -6.64 2.66 -8 3 C-8 2.34 -8 1.68 -8 1 C-3.375 -1.125 -3.375 -1.125 0 0 Z " fill="#8D6553" transform="translate(41,11)"/>
<path d="M0 0 C4.875 4.625 4.875 4.625 6 8 C4.35 8 2.7 8 1 8 C0.67 5.36 0.34 2.72 0 0 Z " fill="#E0C8AE" transform="translate(33,30)"/>
</svg>
